<?xml version="1.0" standalone="no"?><!DOCTYPE svg PUBLIC "-//W3C//DTD SVG 1.1//EN" "http://www.w3.org/Graphics/SVG/1.1/DTD/svg11.dtd"><svg t="1573114176014" class="icon" viewBox="0 0 1024 1024" version="1.1" xmlns="http://www.w3.org/2000/svg" p-id="6647" xmlns:xlink="http://www.w3.org/1999/xlink" width="200" height="200"><defs><style type="text/css"></style></defs><path d="M512 512m-512 0a512 512 0 1 0 1024 0 512 512 0 1 0-1024 0Z" fill="#2d82ff" p-id="6648" data-spm-anchor-id="a313x.7781069.0.i10" class=""></path><path d="M540.416 269.653333v514.517334c0 14.677333-12.714667 26.496-28.416 26.496s-28.458667-11.818667-28.458667-26.496V269.653333c0-14.634667 12.714667-26.453333 28.458667-26.453333s28.416 11.861333 28.416 26.453333z" fill="#FFFFFF" p-id="6649"></path><path d="M725.333333 425.770667a27.221333 27.221333 0 0 1-6.826666 18.133333 24.32 24.32 0 0 1-35.584 1.194667L512 276.224l-170.922667 168.874667a24.277333 24.277333 0 0 1-35.584-1.194667 27.477333 27.477333 0 0 1 1.152-37.461333l188.16-185.898667a24.32 24.32 0 0 1 34.474667 0l188.16 185.898667a27.050667 27.050667 0 0 1 7.893333 19.328z" fill="#FFFFFF" p-id="6650"></path></svg>